<svg width="52" height="41" viewBox="0 0 52 41" fill="none" xmlns="http://www.w3.org/2000/svg">
<path d="M33.7267 25.0951L44.3419 35.725H7.49977L17.7817 25.0905L18.06 24.8027L17.7719 24.5247L15.5219 22.3528L15.2343 22.0752L14.9565 22.3626L4.36289 33.3231V8.21239L23.1026 26.8617L23.1028 26.8618C23.7632 27.5183 24.6566 27.8869 25.5879 27.8869C26.5191 27.8869 27.4126 27.5183 28.073 26.8618L28.0731 26.8617L47.3129 7.72756V33.1437L36.4957 22.3265L36.2129 22.0437L35.93 22.3265L33.7269 24.5297L33.4443 24.8123L33.7267 25.0951ZM47.7129 1.35H3.96289C3.028 1.35 2.1314 1.72138 1.47034 2.38245C0.809273 3.04351 0.437891 3.94011 0.437891 4.875V36.125C0.437891 37.0599 0.809273 37.9565 1.47034 38.6175C2.1314 39.2786 3.028 39.65 3.96289 39.65H47.7129C48.6478 39.65 49.5444 39.2786 50.2054 38.6175C50.8665 37.9565 51.2379 37.0599 51.2379 36.125V4.875C51.2379 3.94011 50.8665 3.04351 50.2054 2.38245C49.5444 1.72138 48.6478 1.35 47.7129 1.35ZM25.588 23.7952L6.97874 5.275H44.2121L25.588 23.7952Z" fill="white" stroke="white" stroke-width="0.8"/>
</svg>
