<svg width="78" height="67" viewBox="0 0 78 67" fill="none" xmlns="http://www.w3.org/2000/svg">
<path d="M46.1756 54.021C46.1906 54.6818 45.68 55.2375 45.0191 55.2525C44.3583 55.2675 43.8026 54.7569 43.7876 54.0961C43.7125 52.0385 42.0454 51.4678 41.6097 51.3626H26.9971C26.8769 51.3626 26.7418 51.3475 26.6366 51.3025C26.5615 51.2875 26.4564 51.2574 26.3362 51.2124C26.3212 51.2124 26.3212 51.2124 26.3062 51.1974C23.8431 50.4164 19.3976 48.8844 15.1929 47.4426C10.6271 45.8806 6.34757 44.4088 5.44641 44.1534C4.0947 43.7779 3.22353 45.6102 3.22353 45.6102C3.20851 45.6252 3.20851 45.6553 3.19349 45.6703C2.5627 46.7967 3.38874 47.9232 3.6741 48.2835L32.104 64.0828C32.1191 64.0978 32.1491 64.0978 32.1641 64.1128C33.9063 65.1191 35.5434 64.3231 35.8588 64.1579C35.949 64.0978 36.0391 64.0527 36.1592 64.0077L57.2601 57.039C57.3953 56.9939 57.5305 56.9639 57.6807 56.9639H62.3817C63.0425 56.9639 63.5832 57.5045 63.5832 58.1654C63.5832 58.8262 63.0425 59.3669 62.3817 59.3669H57.861L36.9853 66.2605C36.3395 66.606 33.7111 67.7775 30.9626 66.1854L30.9326 66.1704L2.3232 50.2661C2.21806 50.206 2.12795 50.1309 2.05285 50.0558C2.05285 50.0408 -0.500319 47.4726 1.06159 44.559C1.06159 44.544 2.77376 40.9093 6.07784 41.8255C7.14418 42.1258 11.4096 43.5827 15.9597 45.1447C18.4528 46.0008 21.0211 46.8869 23.1538 47.6078C23.0787 47.2173 23.0336 46.7817 23.0336 46.3161C23.0787 41.9606 27.4041 41.465 27.4041 41.465C27.4492 41.465 27.5092 41.45 27.5543 41.45H38.5475C40.0043 40.7892 47.4981 37.455 51.5381 36.734H51.5832C53.3855 36.4186 55.6232 36.3135 57.6509 36.3135C59.6934 36.3135 61.4808 36.3886 62.4269 36.4486C63.0878 36.4937 63.5984 37.0494 63.5534 37.7102C63.5083 38.3711 62.9526 38.8817 62.2918 38.8367C61.3456 38.7766 59.5883 38.6865 57.6659 38.7015C55.7735 38.7015 53.6859 38.8066 52.0037 39.092C51.9887 39.092 51.9736 39.092 51.9586 39.107C48.0087 39.8129 40.3197 43.2823 39.3885 43.7029C39.2083 43.808 39.013 43.8531 38.8028 43.8531H27.6144C27.1939 43.9282 25.4366 44.3637 25.4066 46.3462C25.4066 46.8118 25.4667 47.1872 25.5718 47.5026C25.6919 47.8331 25.8571 48.1034 26.0524 48.2986C26.3678 48.6291 26.7132 48.8093 26.9385 48.8844L26.9836 48.8994C27.0136 48.8994 27.0286 48.9144 27.0436 48.9294L27.0737 48.9445H41.6863C41.7614 48.9445 41.8365 48.9445 41.9116 48.9595C41.9266 48.9595 45.9817 49.6954 46.132 54.0058L46.1756 54.021Z" fill="#9C9EA1"/>
<path d="M74.7555 33.4453H64.288C64.2129 33.4453 64.1378 33.4753 64.0928 33.5204C64.0327 33.5804 64.0026 33.6405 64.0026 33.7156V61.9643C64.0026 62.0394 64.0327 62.1145 64.0928 62.1596L64.1228 62.1896C64.1679 62.2196 64.2279 62.2497 64.303 62.2497H74.7706C74.8456 62.2497 74.9207 62.2196 74.9658 62.1746C75.0109 62.1295 75.0409 62.0544 75.0409 61.9793V33.7306C75.0409 33.6555 75.0109 33.5804 74.9658 33.5354C74.9207 33.4903 74.8456 33.4603 74.7706 33.4603L74.7555 33.4453ZM64.288 31.0422H74.7555C75.4915 31.0422 76.1523 31.3426 76.6479 31.8232C77.1285 32.3188 77.4439 32.9797 77.4439 33.7156V61.9643C77.4439 62.7002 77.1436 63.3611 76.663 63.8567C76.1673 64.3373 75.5065 64.6527 74.7706 64.6527H64.303C63.6122 64.6527 62.9663 64.3824 62.4857 63.9468C62.4557 63.9168 62.4257 63.8868 62.3956 63.8717C61.915 63.3911 61.5996 62.7153 61.5996 61.9643V33.7156C61.5996 32.9797 61.9 32.3039 62.3956 31.8082C62.8912 31.3126 63.5521 31.0122 64.288 31.0122L64.288 31.0422Z" fill="#9C9EA1"/>
<path d="M25.8404 0C30.7966 0 35.2867 2.01251 38.5306 5.25665C41.7746 8.50079 43.7873 12.9907 43.7873 17.9469C43.7873 22.9031 41.7748 27.3931 38.5306 30.6371C35.2865 33.881 30.7966 35.8937 25.8404 35.8937C20.8842 35.8937 16.3942 33.8812 13.1502 30.6371C9.90624 27.3929 7.89355 22.9031 7.89355 17.9469C7.89355 12.9907 9.90606 8.50061 13.1502 5.25665C16.3943 2.01269 20.8842 0 25.8404 0ZM36.8336 6.95369C34.025 4.14512 30.1351 2.40303 25.8404 2.40303C21.545 2.40303 17.6558 4.14523 14.8473 6.95369C12.0387 9.76216 10.2966 13.6522 10.2966 17.9469C10.2966 22.2423 12.0388 26.1315 14.8473 28.94C17.6558 31.7486 21.5457 33.4907 25.8404 33.4907C30.1359 33.4907 34.025 31.7485 36.8336 28.94C39.6422 26.1315 41.3842 22.2416 41.3842 17.9469C41.3842 13.6514 39.6421 9.76227 36.8336 6.95369Z" fill="#9C9EA1"/>
<path d="M30.8421 20.7849C30.8421 21.4457 30.7219 22.0314 30.4816 22.5721C30.2563 23.0978 29.9109 23.5634 29.4903 23.9388C29.0698 24.3293 28.5441 24.6297 27.9434 24.855C27.3426 25.0803 26.6668 25.2305 25.9309 25.2905L25.6906 27.7536C25.6756 27.8137 25.6605 27.8738 25.6455 27.9188C25.6155 27.9639 25.5704 28.0089 25.4953 28.039C25.4202 28.069 25.3301 28.0991 25.195 28.1141C25.0748 28.1291 24.9096 28.1441 24.7144 28.1441C24.4741 28.1441 24.2638 28.1291 24.1286 28.1141C23.9784 28.084 23.8583 28.054 23.7832 28.0089C23.7081 27.9639 23.648 27.9038 23.618 27.8437C23.5879 27.7686 23.5879 27.6935 23.603 27.6184L23.8433 25.2905C23.5128 25.2454 23.1975 25.1853 22.9121 25.1102C22.6267 25.0351 22.3564 24.9601 22.1161 24.8699C21.8758 24.7798 21.6655 24.6897 21.5003 24.5996C21.3351 24.5095 21.1999 24.4194 21.1098 24.3292C21.0197 24.2391 20.9596 24.104 20.9146 23.9388C20.8695 23.7735 20.8545 23.5182 20.8545 23.1728C20.8545 22.9175 20.8695 22.6922 20.8845 22.527C20.8995 22.3618 20.9296 22.2266 20.9596 22.1365C21.0047 22.0464 21.0497 21.9863 21.1098 21.9412C21.1699 21.9112 21.23 21.8962 21.3051 21.8962C21.4102 21.8962 21.5454 21.9563 21.7406 22.0614C21.9359 22.1815 22.1762 22.3017 22.4765 22.4369C22.7769 22.572 23.1374 22.6922 23.5579 22.8123C23.9784 22.9325 24.4891 22.9776 25.0598 22.9776C25.9609 22.9776 26.6217 22.8123 27.0573 22.4819C27.4928 22.1515 27.7181 21.701 27.7181 21.1452C27.7181 20.7848 27.628 20.4694 27.4327 20.2441C27.2375 20.0038 26.9972 19.7935 26.6818 19.6133C26.3664 19.4331 26.021 19.2679 25.6155 19.1327C25.225 18.9975 24.8194 18.8473 24.3989 18.6821C23.9934 18.5169 23.5879 18.3367 23.1824 18.1264C22.7919 17.9162 22.4314 17.6458 22.116 17.3304C21.8006 17.015 21.5453 16.6396 21.3651 16.189C21.1698 15.7384 21.0797 15.1977 21.0797 14.5669C21.0797 13.9962 21.1849 13.4705 21.3651 13.005C21.5603 12.5394 21.8307 12.1188 22.1911 11.7734C22.5516 11.4129 22.9871 11.1276 23.5128 10.9173C24.0385 10.692 24.6392 10.5418 25.3001 10.4667L25.5254 8.15379C25.5404 8.09372 25.5554 8.03364 25.5704 8.0036C25.6004 7.95855 25.6455 7.92851 25.7206 7.88345C25.7957 7.85342 25.8858 7.82338 26.021 7.80836C26.1411 7.79334 26.3063 7.77832 26.5016 7.77832C26.7419 7.77832 26.9371 7.79334 27.0873 7.80836C27.2375 7.8384 27.3727 7.86843 27.4478 7.91349C27.5379 7.95855 27.5829 8.01862 27.613 8.0787C27.643 8.15379 27.643 8.22889 27.643 8.30399L27.4177 10.4818C27.628 10.5119 27.8533 10.5569 28.0936 10.602C28.3339 10.662 28.5592 10.7221 28.7544 10.7972C28.9647 10.8723 29.1449 10.9474 29.3251 11.0225C29.4904 11.0976 29.6105 11.1727 29.6706 11.2478C29.7307 11.3079 29.7907 11.383 29.8208 11.443C29.8508 11.5031 29.8808 11.5932 29.8959 11.6834C29.9109 11.7735 29.9259 11.8936 29.9409 12.0288C29.9559 12.164 29.9559 12.3141 29.9559 12.4944C29.9559 12.7347 29.9559 12.9299 29.9409 13.0801C29.9259 13.2303 29.9109 13.3505 29.8808 13.4255C29.8508 13.5006 29.8208 13.5607 29.7757 13.5908C29.7307 13.6208 29.7006 13.6358 29.6405 13.6358C29.5354 13.6358 29.4002 13.5908 29.205 13.4856C29.0098 13.3805 28.7845 13.2754 28.4991 13.1702C28.2137 13.0501 27.8983 12.9449 27.5379 12.8548C27.1774 12.7497 26.7719 12.7046 26.3364 12.7046C25.9459 12.7046 25.6004 12.7497 25.3151 12.8248C25.0297 12.8999 24.8044 13.005 24.6242 13.1552C24.444 13.2904 24.3238 13.4556 24.2337 13.6508C24.1586 13.8461 24.1136 14.0563 24.1136 14.2816C24.1136 14.6421 24.2037 14.9424 24.3989 15.1827C24.5942 15.423 24.8495 15.6333 25.1649 15.8135C25.4803 15.9938 25.8408 16.144 26.2463 16.2941C26.6518 16.4443 27.0573 16.5945 27.4778 16.7597C27.8984 16.925 28.3039 17.1052 28.7094 17.3154C29.1149 17.5257 29.4754 17.781 29.7907 18.0964C30.1061 18.4118 30.3615 18.7873 30.5567 19.2228C30.752 19.6584 30.8421 20.1841 30.8421 20.8149V20.7849Z" fill="#9C9EA1"/>
</svg>
