<svg width="122" height="67" viewBox="0 0 122 67" fill="none" xmlns="http://www.w3.org/2000/svg">
<path d="M101.035 50.5394C101.035 52.198 102.379 53.542 104.037 53.542C105.696 53.542 107.04 52.198 107.04 50.5394C107.04 48.8809 105.696 47.5369 104.037 47.5369C102.379 47.5369 101.035 48.8809 101.035 50.5394Z" fill="#9C9EA1"/>
<path d="M4.29393 40.3411C4.66924 39.8327 5.26351 39.5315 5.89529 39.5288H18.0654C17.3487 38.3162 16.9681 36.9337 16.9627 35.5254H8.95589C8.42509 35.5254 7.91571 35.3145 7.5404 34.9392C7.16508 34.5639 6.95419 34.0545 6.95419 33.5237V23.5152C6.95419 21.9228 7.58686 20.3946 8.71283 19.2689C9.83879 18.1431 11.367 17.5102 12.9592 17.5102H18.0277L25.6342 8.37834C27.1516 6.55446 29.4017 5.49909 31.7752 5.5H51.7922C54.4695 5.49732 56.9708 6.83595 58.4541 9.06464L64.1687 17.6381L75.7669 19.0893H75.766C77.2172 19.2734 78.5505 19.9803 79.5173 21.0776C80.4842 22.1741 81.0168 23.587 81.0168 25.0488V33.5239C81.0168 34.0547 80.8059 34.5641 80.4306 34.9394C80.0553 35.3147 79.5459 35.5256 79.0151 35.5256H71.0083C71.0002 36.9357 70.616 38.3172 69.8957 39.529H85.0201V13.5069C85.0201 12.9761 85.231 12.4667 85.6063 12.0914C85.9817 11.7161 86.491 11.5052 87.0218 11.5052H109.041C109.73 11.5052 110.372 11.8608 110.738 12.4461L120.747 28.4598C120.946 28.8217 121.051 29.2292 121.051 29.6429V49.5376C121.051 50.0684 120.84 50.5777 120.465 50.953C120.089 51.3284 119.58 51.5393 119.049 51.5393H114.996C114.644 55.2066 112.483 58.4558 109.235 60.1958C105.988 61.9347 102.084 61.9347 98.8371 60.1958C95.5898 58.4559 93.428 55.2066 93.0768 51.5393H89.0233V53.541C89.0233 54.0718 88.8124 54.5811 88.4371 54.9564C88.0618 55.3318 87.5524 55.5427 87.0216 55.5427H65.0029C64.4721 55.5427 63.9627 55.3318 63.5874 54.9564C63.2121 54.5811 63.0012 54.0718 63.0012 53.541V51.5393H40.9323C40.5811 55.2066 38.4196 58.4558 35.172 60.1958C31.9247 61.9347 28.0212 61.9347 24.7739 60.1958C21.5266 58.4559 19.3647 55.2066 19.0136 51.5393H2.94986C2.41905 51.5393 1.90968 51.3284 1.53437 50.953C1.15906 50.5777 0.948158 50.0684 0.948158 49.5376V45.5341C0.950836 45.1052 1.09113 44.6879 1.3485 44.3447L4.29393 40.3411ZM107.932 15.5086H102.275L104.677 27.5305L115.486 27.6127L107.932 15.5086ZM112.571 43.6491C112.974 44.1504 113.333 44.6866 113.643 45.2505C113.673 45.3068 113.715 45.3541 113.745 45.4104C114.076 46.0503 114.344 46.7205 114.545 47.4121C114.557 47.4523 114.579 47.4845 114.589 47.5238L117.048 47.5247V43.533H112.496C112.526 43.5687 112.544 43.6134 112.571 43.6491L112.571 43.6491ZM104.036 57.5448C105.894 57.5448 107.676 56.8067 108.991 55.493C110.304 54.1785 111.042 52.3967 111.042 50.5389C111.037 50.3914 111.022 50.244 110.999 50.0983L110.955 49.7596L110.954 49.7605C110.713 47.4603 109.344 45.4309 107.302 44.3452C105.261 43.2594 102.812 43.2594 100.77 44.3452C98.7282 45.4309 97.3601 47.4603 97.1187 49.7605L97.075 50.0992L97.0741 50.0983C97.0508 50.244 97.0356 50.3914 97.0303 50.5389C97.0303 52.3967 97.7684 54.1786 99.082 55.493C100.397 56.8067 102.178 57.5448 104.036 57.5448H104.036ZM89.0236 47.5363H93.4873C93.4873 47.4961 93.5195 47.4639 93.5311 47.4246C93.7321 46.732 94.0011 46.0618 94.3318 45.4229C94.3621 45.3693 94.4015 45.3228 94.4318 45.2692V45.2683C94.741 44.6982 95.1003 44.1575 95.5051 43.6508C95.5328 43.6151 95.5515 43.5704 95.581 43.5347H89.0237L89.0236 47.5363ZM89.0236 39.5295H117.047V31.629L103.192 31.5227H103.02C102.074 31.5156 101.263 30.848 101.074 29.9213L98.1912 15.5091H89.0237L89.0236 39.5295ZM38.981 9.50394H31.7749C30.5873 9.50394 29.4605 10.0321 28.7001 10.9453L23.2374 17.5107H38.981V9.50394ZM38.981 21.5142H12.9589C12.4281 21.5142 11.9187 21.725 11.5434 22.1004C11.1681 22.4757 10.9572 22.985 10.9572 23.5159V31.5227H18.0615C18.217 31.26 18.3859 31.0062 18.57 30.7622C18.5941 30.7318 18.612 30.6961 18.6361 30.6657C18.8685 30.3645 19.1223 30.0795 19.3948 29.8132C19.4752 29.7354 19.5628 29.6666 19.6468 29.5907C19.847 29.4128 20.0472 29.2386 20.2616 29.0804C20.3733 28.9982 20.4922 28.924 20.6084 28.8481C20.8085 28.7158 21.0087 28.5898 21.2267 28.4754C21.3545 28.4075 21.485 28.3414 21.6271 28.2753C21.8433 28.1734 22.0658 28.0751 22.2919 28.0009C22.426 27.9527 22.56 27.9026 22.6923 27.8606C22.9389 27.7864 23.1927 27.7302 23.4465 27.6783C23.5689 27.6542 23.6886 27.622 23.8129 27.6041L23.812 27.605C24.5814 27.4826 25.3651 27.4826 26.1344 27.605C26.2586 27.6229 26.3766 27.6551 26.499 27.6792C26.7555 27.731 27.0093 27.7873 27.2577 27.8615C27.3935 27.9035 27.5258 27.9536 27.658 28.0018C27.8841 28.084 28.1048 28.1743 28.3229 28.2744C28.4551 28.336 28.5847 28.4021 28.7232 28.4745C28.935 28.5889 29.1414 28.7149 29.3434 28.8472C29.4577 28.9249 29.5757 28.9973 29.6856 29.0795L29.6847 29.0786C29.9001 29.2386 30.1065 29.4092 30.304 29.5907C30.3862 29.6648 30.4738 29.7327 30.5542 29.8105V29.8114C30.8268 30.0777 31.0797 30.3618 31.3129 30.6639C31.3388 30.6979 31.3594 30.7363 31.3853 30.7702H31.3844C31.5658 31.0106 31.7329 31.2617 31.8866 31.5209H38.9811L38.981 21.5142ZM55.1127 11.2876C54.3728 10.1769 53.1271 9.50755 51.7919 9.50396H42.9844V17.5108H59.2625L55.1127 11.2876ZM69.9093 31.5227H77.0136V25.0493C77.0145 24.0395 76.2621 23.187 75.2603 23.0619L62.8775 21.5141H42.9846V31.5226H56.0941C56.2496 31.2599 56.4185 31.0061 56.6026 30.7622C56.6267 30.7318 56.6446 30.6961 56.6687 30.6657C56.901 30.3645 57.1548 30.0794 57.4274 29.8131C57.5078 29.7354 57.5954 29.6666 57.6794 29.5906C57.8796 29.4128 58.0797 29.2385 58.2942 29.0804C58.4059 28.9982 58.5247 28.924 58.6409 28.848C58.8411 28.7158 59.0412 28.5898 59.2593 28.4754C59.3871 28.4075 59.5175 28.3414 59.6596 28.2752C59.8759 28.1734 60.0984 28.0751 60.3245 28.0009C60.4585 27.9526 60.5926 27.9026 60.7248 27.8606C60.9714 27.7864 61.2252 27.7301 61.479 27.6783C61.6014 27.6542 61.7212 27.622 61.8454 27.6041L61.8445 27.605C62.6139 27.4826 63.3976 27.4826 64.167 27.605C64.2912 27.6229 64.4091 27.6551 64.5316 27.6792C64.788 27.731 65.0418 27.7873 65.2902 27.8615C65.4261 27.9035 65.5583 27.9535 65.6906 28.0018C65.9167 28.084 66.1374 28.1743 66.3554 28.2743C66.4877 28.336 66.6172 28.4021 66.7558 28.4745C66.9675 28.5889 67.174 28.7149 67.3759 28.8471C67.4903 28.9249 67.6083 28.9973 67.7182 29.0795L67.7173 29.0786C67.9326 29.2385 68.1391 29.4092 68.3366 29.5906C68.4188 29.6648 68.5063 29.7327 68.5868 29.8105V29.8114C68.8593 30.0777 69.1122 30.3618 69.3455 30.6639C69.3714 30.6978 69.3919 30.7363 69.4178 30.7702H69.417C69.5948 31.0115 69.7592 31.2635 69.9093 31.5227L69.9093 31.5227ZM67.0051 49.538V51.5397H85.0204V43.5329H67.0051V49.538ZM67.0051 35.5261C67.0051 34.4645 66.5833 33.4457 65.8327 32.6951C65.082 31.9445 64.0633 31.5227 63.0017 31.5227C61.9401 31.5227 60.9213 31.9445 60.1707 32.6951C59.4201 33.4457 58.9983 34.4645 58.9983 35.5261C58.9983 36.5877 59.4201 37.6064 60.1707 38.3571C60.9213 39.1077 61.9401 39.5295 63.0017 39.5295C64.0606 39.5205 65.074 39.0961 65.8228 38.3472C66.5717 37.5984 66.9962 36.585 67.0051 35.5261ZM38.5077 43.6491C38.9107 44.1504 39.2691 44.6866 39.5792 45.2505C39.6096 45.3068 39.6516 45.3541 39.681 45.4104C40.0126 46.0503 40.2807 46.7205 40.4817 47.4121C40.4933 47.4523 40.5157 47.4845 40.5255 47.5238L63.0009 47.5247V43.533H38.4314C38.4618 43.5687 38.4796 43.6134 38.5073 43.6491L38.5077 43.6491ZM56.1067 39.5295C55.3864 38.3177 55.0022 36.9362 54.9941 35.5261H32.9754C32.9674 36.9362 32.5831 38.3177 31.8628 39.5295H56.1067ZM29.9725 57.5448C31.8303 57.5448 33.6121 56.8067 34.9266 55.493C36.2402 54.1785 36.9784 52.3967 36.9784 50.5389C36.973 50.3914 36.9578 50.244 36.9346 50.0983L36.8908 49.7596L36.8899 49.7605C36.6486 47.4603 35.2805 45.4309 33.2386 44.3452C31.1967 43.2594 28.7481 43.2594 26.7062 44.3452C24.6642 45.4309 23.2962 47.4603 23.0548 49.7605L23.011 50.0992L23.0101 50.0983C22.9869 50.244 22.9717 50.3914 22.9664 50.5389C22.9664 52.3967 23.7045 54.1786 25.0181 55.493C26.3326 56.8067 28.1145 57.5448 29.9723 57.5448H29.9725ZM24.9682 39.5295C26.0084 39.5143 27.0012 39.0898 27.7294 38.3472C28.4577 37.6046 28.8643 36.6038 28.8589 35.5636C28.8545 34.5234 28.4389 33.527 27.7026 32.7916C26.9672 32.0553 25.9708 31.6397 24.9306 31.6353C23.8905 31.6299 22.8896 32.0365 22.147 32.7648C21.4044 33.4931 20.9799 34.4859 20.9648 35.526C20.9648 36.5876 21.3866 37.6064 22.1372 38.357C22.8878 39.1076 23.9065 39.5294 24.9682 39.5294L24.9682 39.5295ZM4.95117 47.5363H19.4234C19.4332 47.4961 19.4555 47.4639 19.4672 47.4246C19.6682 46.732 19.9372 46.0618 20.2678 45.4229C20.2982 45.3693 20.3375 45.3228 20.3679 45.2692V45.2683C20.6771 44.6982 21.0364 44.1575 21.4412 43.6508C21.4689 43.6151 21.4876 43.5704 21.5171 43.5347H6.9191L4.95134 46.1932L4.95117 47.5363Z" fill="#9C9EA1"/>
<path d="M26.9715 50.5394C26.9715 52.198 28.3155 53.542 29.974 53.542C31.6326 53.542 32.9766 52.198 32.9766 50.5394C32.9766 48.8809 31.6326 47.5369 29.974 47.5369C28.3155 47.5369 26.9715 48.8809 26.9715 50.5394Z" fill="#9C9EA1"/>
</svg>
