<svg width="51" height="50" viewBox="0 0 51 50" fill="none" xmlns="http://www.w3.org/2000/svg">
<path d="M37.2591 49.9999C37.923 50.0037 38.581 49.8753 39.1948 49.6221C39.8085 49.3689 40.3657 48.9959 40.8337 48.5251L47.608 41.7508C48.0736 41.2824 48.3349 40.6489 48.3349 39.9885C48.3349 39.3281 48.0736 38.6945 47.608 38.2262L37.6091 28.2272C37.1407 27.7617 36.5071 27.5003 35.8467 27.5003C35.1864 27.5003 34.5528 27.7617 34.0844 28.2272L30.0849 32.2018C27.3158 31.4635 24.7512 30.1043 22.5857 28.2272C20.7137 26.0582 19.3551 23.4949 18.6111 20.728L22.5857 16.7285C23.0512 16.2601 23.3126 15.6265 23.3126 14.9661C23.3126 14.3057 23.0512 13.6722 22.5857 13.2038L12.5867 3.2049C12.1184 2.73932 11.4848 2.47799 10.8244 2.47799C10.164 2.47799 9.53045 2.73932 9.0621 3.2049L2.31282 10.0042C1.84195 10.4722 1.46902 11.0294 1.2158 11.6431C0.96258 12.2569 0.834139 12.9149 0.837974 13.5788C1.06476 23.1835 4.90273 32.35 11.5868 39.2511C18.4879 45.9352 27.6544 49.7731 37.2591 49.9999ZM10.8369 8.52933L17.3112 15.0036L14.0866 18.2283C13.7811 18.5144 13.5524 18.8726 13.4214 19.27C13.2904 19.6674 13.2612 20.0914 13.3366 20.5031C14.271 24.6785 16.2491 28.5488 19.086 31.7519C22.2866 34.5924 26.1579 36.5711 30.3348 37.5012C30.7402 37.586 31.1603 37.5687 31.5574 37.4509C31.9545 37.3331 32.316 37.1185 32.6096 36.8263L35.8342 33.5267L42.3086 40.001L37.3091 45.0004C29.0193 44.787 21.1096 41.4786 15.1365 35.7264C9.36935 29.7508 6.05144 21.8307 5.83744 13.5288L10.8369 8.52933ZM45.8332 22.5028H50.8326C50.8975 19.5307 50.3598 16.5761 49.2522 13.8173C48.1445 11.0584 46.4897 8.55244 44.3876 6.45029C42.2854 4.34813 39.7794 2.69336 37.0206 1.5857C34.2618 0.478036 31.3072 -0.0595853 28.335 0.00523602V5.0047C30.6546 4.92447 32.9658 5.3222 35.1251 6.17316C37.2843 7.02413 39.2455 8.31015 40.8866 9.95128C42.5277 11.5924 43.8138 13.5536 44.6647 15.7128C45.5157 17.8721 45.9134 20.1833 45.8332 22.5028Z" fill="#D6D3C7"/>
<path d="M28.335 15.0036C33.5844 15.0036 35.8342 17.2534 35.8342 22.5028H40.8336C40.8336 14.4537 36.3841 10.0042 28.335 10.0042V15.0036Z" fill="#D6D3C7"/>
</svg>
