<svg width="174" height="63" viewBox="0 0 174 63" fill="none" xmlns="http://www.w3.org/2000/svg">
<path d="M155.912 50.8164L155.749 51.959C155.888 52.0246 156.068 52.0939 156.294 52.1618C156.807 52.3154 157.468 52.435 158.253 52.5156C159.821 52.6765 161.776 52.6711 163.797 52.5323C165.814 52.3938 167.864 52.1245 169.617 51.7695C171.05 51.4791 172.218 51.1442 173 50.8072V49.0266C172.364 48.1848 172.065 47.1753 171.944 46.1531C171.809 45.0038 171.89 43.758 172.035 42.5557C172.125 41.8018 172.248 41.0144 172.364 40.2647C172.431 39.8368 172.495 39.4211 172.551 39.0309C172.667 38.2191 172.749 37.4928 172.764 36.8645H172.491C168.143 36.8645 163.52 36.3527 158.635 34.8096L158.355 34.7214L158.168 34.4963C155.794 31.6478 152.694 29.7298 149.312 28.522L149.509 26.5899L160.327 25.0755C158.232 24.2276 155.974 23.5004 153.628 22.8688C146.966 21.0759 139.766 20.0935 133.683 19.2636C131.196 18.9242 128.896 18.6104 126.895 18.277L126.786 18.2588L126.683 18.2169C121.703 16.1916 117.625 14.349 113.893 12.663C106.413 9.28385 100.327 6.53401 91.1746 4.20403C73.2379 -0.158558 50.3047 -0.509559 27.2378 5.93281L27.2936 5.97935L27.9712 6.54383L27.4958 7.28664C23.5811 13.4044 18.5037 17.6605 14.0242 20.2803L18.582 22.6795L19.0437 22.9225L19.1085 23.4402L19.2274 24.39L19.4447 24.3485L19.3658 25.6331L19.3658 25.6341L18.3855 25.6651L18.5549 26.5542C15.9598 27.0488 14.4552 27.6416 13.5788 28.3118C12.7749 28.9266 12.4388 29.653 12.3347 30.6921L12.2445 31.5924H11.3397H6.82085H6.34024L6.03999 31.2171C5.87442 31.0102 5.73013 30.7861 5.60661 30.548L5.17842 30.881L1.0457 34.0949V48.6665V48.754L1.03047 48.8403C0.915268 49.493 1.12955 49.9871 1.67403 50.4502C2.26842 50.9557 3.21446 51.3706 4.38464 51.6856C6.12598 52.1544 8.12759 52.3419 9.58873 52.4063C9.44484 51.6362 9.33746 50.7845 9.33746 49.9214C9.33746 41.3477 16.3002 34.3624 24.645 34.3624C33.2526 34.3624 39.9525 41.3593 39.9525 49.9214C39.9525 51.0537 39.8198 52.174 39.6527 53.1819L125.472 52.6931L125.311 50.7579L125.307 50.7164V50.6748C125.307 42.1126 132.008 35.1158 140.615 35.1158C148.959 35.1158 155.922 42.1011 155.922 50.6748V50.7459L155.912 50.8164ZM67.8492 3.48794L67.8602 4.48223L68.8107 4.35756L70.8191 19.6698L70.9759 20.8656L69.7718 20.7983L29.3597 18.5394L27.9701 18.4617L28.487 17.1695C30.5979 11.8927 34.0621 7.92961 41.0868 5.068L41.2008 5.02156L41.3226 5.00415C50.1643 3.74103 59.0064 3.23586 67.8492 3.48794ZM75.2737 21.2989L74.4755 21.2377L74.3605 20.4454L72.1016 4.88274L71.9229 3.6509L73.1643 3.74176C83.4928 4.49773 93.9066 6.01296 103.337 9.83666L103.872 10.0535L103.952 10.6251L105.459 21.4188L105.625 22.6078L104.425 22.5561L75.3078 21.3009L75.291 21.3002L75.2743 21.2989L75.2737 21.2989ZM108.233 21.628L107.243 21.6984L105.987 12.9124L105.736 11.1507L107.371 11.8519C110.985 13.401 114.57 15.7108 118.589 18.4732L118.801 18.6193L118.917 18.8501C119.236 19.4897 119.398 20.2142 119.159 20.9311C118.92 21.6481 118.356 22.1309 117.716 22.4508L117.505 22.5562H117.269H108.233V21.628Z" stroke="white" stroke-width="2"/>
<path d="M129.064 50.4236C129.064 56.6456 134.216 61.7237 140.615 61.7237C147.013 61.7237 152.165 56.6456 152.165 50.4236C152.165 44.2016 147.013 39.1235 140.615 39.1235C134.216 39.1235 129.064 44.2016 129.064 50.4236Z" stroke="white" stroke-width="2"/>
<path d="M12.8449 49.6711C12.8449 55.8748 18.0902 60.9712 24.6459 60.9712C31.2025 60.9712 36.448 55.8747 36.448 49.6711C36.448 43.4686 31.2028 38.3721 24.6459 38.3721C18.0904 38.3721 12.8449 43.4686 12.8449 49.6711Z" stroke="white" stroke-width="2"/>
</svg>
