<svg width="217" height="79" viewBox="0 0 217 79" fill="none" xmlns="http://www.w3.org/2000/svg">
<path d="M194.062 63.2952L193.833 64.8942C194.044 65.0091 194.332 65.129 194.711 65.2427C195.37 65.4401 196.211 65.5914 197.198 65.6927C199.171 65.8951 201.623 65.8878 204.149 65.7142C206.672 65.5409 209.239 65.2041 211.434 64.7593C213.312 64.3789 214.845 63.9336 215.848 63.479V61.016C215.057 60.0005 214.68 58.7639 214.53 57.4897C214.365 56.0863 214.464 54.5566 214.643 53.0645C214.755 52.1283 214.906 51.1564 215.051 50.2256C215.135 49.691 215.216 49.1701 215.286 48.6772C215.446 47.5574 215.556 46.5541 215.557 45.6962H214.968C209.568 45.6962 203.833 45.0609 197.773 43.1468L197.494 43.0585L197.306 42.8334C194.314 39.2432 190.411 36.8306 186.163 35.3138L186.361 33.3817L200.738 31.3689C197.881 30.1569 194.768 29.1358 191.523 28.2625C183.204 26.0239 174.203 24.7956 166.617 23.7605C163.523 23.3383 160.664 22.9483 158.184 22.5349L158.074 22.5167L157.971 22.4748C151.786 19.9588 146.71 17.666 142.062 15.566C132.727 11.3491 125.113 7.9094 113.686 5.00033C91.1747 -0.475158 62.3683 -0.888287 33.4275 7.28329L33.8569 7.64098L34.5344 8.20546L34.0591 8.94828C29.0915 16.7114 22.6138 22.0575 16.968 25.2845L17.0994 25.3537L23.0429 28.4823L23.5046 28.7253L23.5694 29.243L23.7502 30.6871L23.9678 30.6456L23.8886 31.9305L23.8886 31.9317L22.9084 31.9626L23.0778 32.8513C19.8336 33.4697 17.9119 34.217 16.7728 35.0881C15.7062 35.9038 15.2619 36.8774 15.1269 38.2255L15.0367 39.1259H14.1319H8.50024H8.01964L7.71939 38.7506C6.38937 37.0882 6.20116 34.4528 7.00922 32.0175C6.18385 34.0053 6.12218 35.9432 6.61136 37.1171L6.90518 37.8222L6.30219 38.2911L1.05669 42.3704V60.6507V60.7383L1.04146 60.8246C0.879868 61.74 1.1946 62.4388 1.92645 63.0613C2.70821 63.7261 3.92856 64.255 5.40009 64.6512C7.71991 65.2757 10.399 65.5028 12.2507 65.5701C12.0444 64.5432 11.8828 63.3859 11.8828 62.2147C11.8828 51.663 20.4527 43.0705 30.7136 43.0705C41.2993 43.0705 49.5444 51.6745 49.5444 62.2147C49.5444 63.7167 49.3546 65.2047 49.1252 66.526L156.637 65.9137L156.414 63.2368L156.41 63.1953V63.1536C156.41 52.6134 164.657 44.0094 175.241 44.0094C185.502 44.0094 194.072 52.6018 194.072 63.1536V63.2248L194.062 63.2952ZM84.5499 4.59301L84.561 5.58727L85.5111 5.46265L88.0141 24.5456L88.171 25.7414L86.9668 25.674L36.6031 22.8589L35.2135 22.7812L35.7304 21.489C38.3359 14.9759 42.6035 10.0856 51.2972 6.54407L51.4112 6.49763L51.5331 6.48022C62.5383 4.90802 73.5437 4.27926 84.5499 4.59301ZM93.8251 26.298L93.0301 26.2342L92.9155 25.4448L90.1004 6.04976L89.9216 4.81792L91.163 4.90878C104.026 5.85025 116.974 7.73623 128.692 12.4872L129.227 12.704L129.307 13.2757L131.184 26.7273L131.35 27.9163L130.151 27.8646L93.8629 26.3003L93.8444 26.2995L93.8259 26.2981L93.8251 26.298ZM134.885 26.9365L133.895 27.0069L132.331 16.0574L132.079 14.2956L133.715 14.9968C138.193 16.917 142.644 19.783 147.652 23.2252L147.864 23.3714L147.98 23.6021C148.361 24.3653 148.539 25.1979 148.269 26.0076C147.999 26.8173 147.358 27.3774 146.593 27.7591L146.382 27.8645H146.147H134.885V26.9365Z" stroke="#231F20" stroke-width="2"/>
<path d="M160.6 62.841C160.6 70.7358 167.135 77.17 175.241 77.17C183.347 77.17 189.882 70.7358 189.882 62.841C189.882 54.9461 183.347 48.512 175.241 48.512C167.135 48.512 160.6 54.9461 160.6 62.841Z" stroke="#231F20" stroke-width="2"/>
<path d="M15.7615 61.903C15.7615 69.7794 22.4181 76.232 30.7148 76.232C39.0126 76.232 45.6694 69.7794 45.6694 61.903C45.6694 54.0278 39.0129 47.5752 30.7148 47.5752C22.4183 47.5752 15.7615 54.0278 15.7615 61.903Z" stroke="#231F20" stroke-width="2"/>
</svg>
