<svg width="48" height="67" viewBox="0 0 48 67" fill="none" xmlns="http://www.w3.org/2000/svg">
<path d="M47.305 8.01058C47.305 6.85186 46.8447 5.74039 46.0249 4.92115C45.2056 4.10137 44.0942 3.64099 42.9355 3.64099H34.9244V2.91289C34.9244 2.14041 34.6176 1.39914 34.071 0.852943C33.5248 0.306745 32.7839 0 32.0115 0H15.9889C15.2164 0 14.4756 0.306745 13.9294 0.852943C13.3827 1.39914 13.076 2.14035 13.076 2.91289V3.64099H5.0649C3.90619 3.64099 2.79471 4.10136 1.97548 4.92115C1.15569 5.74045 0.695312 6.85189 0.695312 8.01058V62.6304C0.695312 63.7896 1.15568 64.9011 1.97548 65.7203C2.79477 66.5396 3.90621 67 5.0649 67H42.9355C44.0942 67 45.2057 66.5396 46.0249 65.7203C46.8447 64.901 47.3051 63.7896 47.3051 62.6304L47.305 8.01058ZM15.9888 2.91289H32.0115V7.28248H15.9888V2.91289ZM44.3912 62.6302C44.3912 63.0164 44.238 63.387 43.9649 63.6601C43.6913 63.9332 43.3212 64.0869 42.935 64.0869H5.06436C4.26018 64.0869 3.60817 63.4348 3.60817 62.6302V8.01033C3.60817 7.20615 4.2602 6.55413 5.06436 6.55413H13.0754V7.28223C13.0754 8.05471 13.3822 8.79598 13.9289 9.34218C14.4751 9.88838 15.2159 10.1951 15.9883 10.1951H32.011C32.7835 10.1951 33.5242 9.88838 34.0704 9.34218C34.6171 8.79598 34.9239 8.05477 34.9239 7.28223V6.55413H42.9349C43.3212 6.55413 43.6913 6.70727 43.9649 6.98037C44.238 7.25395 44.3911 7.62409 44.3911 8.01034L44.3912 62.6302Z" fill="#9C9EA1"/>
<path d="M29.1412 27.8919C28.813 27.6866 28.4165 27.6202 28.0395 27.708C27.6621 27.7953 27.3353 28.0294 27.131 28.3581L22.6448 35.5459L20.6565 33.565H20.657C20.0791 33.0705 19.2174 33.1037 18.6795 33.6416C18.1416 34.1795 18.1084 35.0412 18.6029 35.6191L21.8801 38.8963C22.1522 39.1694 22.5214 39.324 22.9071 39.326H23.0744C23.5162 39.2752 23.9103 39.0256 24.1453 38.6486L29.6073 29.9094C29.8151 29.5807 29.8824 29.1823 29.7951 28.8033C29.7073 28.4244 29.4717 28.0962 29.1411 27.8919L29.1412 27.8919Z" fill="#9C9EA1"/>
<path d="M24.0002 21.8481C20.9098 21.8481 17.9462 23.0756 15.7609 25.2609C13.5756 27.4462 12.3481 30.4098 12.3481 33.5002C12.3481 36.5906 13.5756 39.5542 15.7609 41.7395C17.9462 43.9248 20.9098 45.1523 24.0002 45.1523C27.0906 45.1523 30.0542 43.9248 32.2395 41.7395C34.4248 39.5542 35.6523 36.5906 35.6523 33.5002C35.6523 30.4098 34.4248 27.4462 32.2395 25.2609C30.0542 23.0756 27.0906 21.8481 24.0002 21.8481ZM24.0002 42.2391C21.6823 42.2391 19.4595 41.3184 17.8209 39.6793C16.1818 38.0407 15.261 35.8178 15.261 33.5C15.261 31.1821 16.1818 28.9592 17.8209 27.3206C19.4595 25.6815 21.6823 24.7608 24.0002 24.7608C26.3181 24.7608 28.541 25.6815 30.1796 27.3206C31.8187 28.9592 32.7394 31.1821 32.7394 33.5C32.7394 35.8178 31.8187 38.0407 30.1796 39.6793C28.541 41.3184 26.3181 42.2391 24.0002 42.2391Z" fill="#9C9EA1"/>
</svg>
