<svg width="56" height="68" viewBox="0 0 56 68" fill="none" xmlns="http://www.w3.org/2000/svg">
<path d="M27.8379 37.125C33.0156 37.125 37.2129 32.9277 37.2129 27.75C37.2129 22.5723 33.0156 18.375 27.8379 18.375C22.6602 18.375 18.4629 22.5723 18.4629 27.75C18.4629 32.9277 22.6602 37.125 27.8379 37.125Z" stroke="#D6D3C7" stroke-width="5" stroke-linecap="round" stroke-linejoin="round"/>
<path d="M27.8379 2.75C21.2075 2.75 14.8486 5.38392 10.1602 10.0723C5.47181 14.7607 2.83789 21.1196 2.83789 27.75C2.83789 33.6625 4.09414 37.5312 7.52539 41.8125L27.8379 65.25L48.1504 41.8125C51.5816 37.5312 52.8379 33.6625 52.8379 27.75C52.8379 21.1196 50.204 14.7607 45.5156 10.0723C40.8272 5.38392 34.4683 2.75 27.8379 2.75V2.75Z" stroke="#D6D3C7" stroke-width="5" stroke-linecap="round" stroke-linejoin="round"/>
</svg>
