<svg width="60" height="67" viewBox="0 0 60 67" fill="none" xmlns="http://www.w3.org/2000/svg">
<path d="M58.9978 25.3613V22.4519V13.3211C58.9978 12.0165 58.496 10.4117 56.0884 10.11C55.5866 10.0099 54.9847 10.0099 54.4829 9.90911C52.8773 9.70824 51.3726 9.50807 49.867 9.20641C44.0475 7.90182 38.4286 5.29328 32.3081 0.978444C30.4015 -0.326148 29.5988 -0.326148 27.5923 0.978444C19.3643 6.69799 11.839 9.6074 4.11348 10.0084C1.80591 10.1085 0.902344 11.2122 0.902344 13.5205V19.3401V35.7953C0.902344 37.7019 1.2033 39.7084 1.60504 41.715C2.70878 46.4308 5.11718 50.6449 9.13029 54.658C14.2473 59.775 20.6687 63.7889 28.6959 66.7991C29.097 66.8992 29.4987 67 29.8998 67C30.4016 67 30.9034 66.8999 31.4045 66.6991C31.9064 66.4982 32.3074 66.298 32.8092 66.0971C34.8158 65.2943 36.8223 64.3915 38.8298 63.2877C45.3513 59.8764 50.2682 55.7625 53.8803 50.8458C57.0914 46.5317 58.6963 42.2168 58.8971 37.7019C58.8971 36.799 58.9972 35.7953 58.9972 34.7924V34.6924L59.0973 25.5615V25.4615L58.9978 25.3613ZM55.4864 25.3613V25.6623V25.7624L55.3863 34.6923V34.9933C55.3863 36.097 55.3863 36.9999 55.2862 37.9027C55.0853 41.7157 53.6807 45.428 50.9721 49.1402C47.661 53.5552 43.1458 57.3682 37.1255 60.4785C35.3197 61.4821 33.3125 62.2842 31.4059 63.087C30.9041 63.2879 30.4022 63.4881 30.0012 63.6889H29.9011C22.2757 60.7795 16.3553 57.0665 11.6399 52.3507C8.12772 48.8386 5.92031 45.1265 5.01746 41.0125C4.61642 39.2068 4.41555 37.5004 4.41555 35.7948C4.31546 30.2761 4.41555 24.7574 4.41555 19.3396V13.5201C12.8437 13.0182 20.8708 9.90794 29.7004 3.7874C29.8005 3.68732 29.9013 3.58653 30.0014 3.58653C30.1014 3.68662 30.2022 3.7874 30.3023 3.7874C36.8238 8.30237 42.9446 11.1118 49.1656 12.5165C50.8712 12.9176 52.5769 13.1184 54.1824 13.3193C54.6843 13.4194 55.0853 13.4194 55.5871 13.5202V22.1491L55.4864 25.3613ZM32.5093 31.7836H31.6064V23.7565H36.5231C37.5267 23.7565 38.2287 22.9537 38.2287 22.0509C38.2287 21.0472 37.4259 20.3452 36.5231 20.3452H31.6064V16.5322C31.6064 15.5286 30.8036 14.8266 29.9008 14.8266C28.8971 14.8266 28.1951 15.6294 28.1951 16.5322V20.3452H27.2923C23.1783 20.3452 19.767 23.7565 19.767 27.8705C19.767 31.9845 23.1783 35.3957 27.2923 35.3957H28.1951V43.4228H23.0781C22.0745 43.4228 21.3725 44.2256 21.3725 45.1285C21.3725 46.1321 22.1753 46.8341 23.0781 46.8341H28.1951V50.6471C28.1951 51.6507 28.9979 52.3527 29.9008 52.3527C30.9044 52.3527 31.6064 51.5499 31.6064 50.6471V46.8341H32.3091H32.4092H32.5093C36.6233 46.8341 40.0345 43.4228 40.0345 39.3089C40.0345 35.1949 36.7234 31.7836 32.5093 31.7836H32.5093ZM28.1952 24.3585V31.7836H27.2923C25.0849 31.7836 23.2792 29.9779 23.2792 27.7705C23.2792 25.5631 25.0849 23.7574 27.2923 23.7574H28.1952V24.3585ZM32.5093 43.3221H32.3084H31.6057L31.6064 42.6194V35.295H32.5093C34.7167 35.295 36.5224 37.1007 36.5224 39.3082C36.5231 41.5156 34.7167 43.322 32.5093 43.322V43.3221Z" fill="#645F60"/>
</svg>
